<?xml version="1.0" encoding="UTF-8"?><svg xmlns="http://www.w3.org/2000/svg" viewBox="0 0 2429.88 2720.38"><g id="a"><path d="M2286.61,2675.16c0-24.97-479.81-45.21-1071.69-45.21s-1071.64,20.24-1071.64,45.21,479.81,45.22,1071.64,45.22,1071.69-20.24,1071.69-45.22Z" style="fill:#eee;"/><circle cx="1214.94" cy="1214.94" r="1214.94" style="fill:#ffc5c3;"/><g><polygon points="2070.43 1171.55 2070.43 1465.34 298.97 1465.34 298.97 1171.55 713.34 1171.55 1655.24 1171.55 2070.43 1171.55" style="fill:#545454;"/><path d="M1520.36,2222.91c0,23.96-.87,54.28-.9,93.61H910.48c-.05-32.86-.66-59.42-.82-81.24v-1.23c.05-6.68,.05-12.97,0-18.79,1.06-96.21,20.89-83.13,181.92-169.52l123.39,84.19,123.37-84.19c166.04,89.05,182.02,71.82,182.02,177.17Z" style="fill:#f4bc4b;"/><path d="M1949.14,2045.75c203.02,108.93,181.46,59.72,181.07,270.78h-608.92c-.06-39.33-.93-69.64-.93-93.61,0-105.35,16.01-88.12,181.97-177.17l123.44,84.19,123.36-84.19Z" style="fill:#4f4033;"/><path d="M909.66,2215.27c-.05,5.82-.05,12.1,0,18.79v1.23c-.16,21.82-.77,48.38-.82,81.24H299.87c-.4-212.23-22.61-161.5,181.12-270.78l123.31,84.19,123.44-84.19c161.03,86.39,180.85,73.31,181.92,169.52Z" style="fill:#fc9e6a;"/><path d="M1226.97,974.23h-85.52v90.33h85.52v-90.33Zm-42.65-91.38l190.86-130.19c314.04,168.43,280.68,92.36,280.07,418.88H713.34c-.66-328.4-35.03-249.92,280.07-418.88l190.91,130.19Z" style="fill:#70d5b7;"/><path d="M757.98,1745.46c0,73.73-53.85,205.11-150.92,205.11s-150.86-131.38-150.86-205.11c0-78.12,67.55-141.52,150.86-141.52s150.92,63.41,150.92,141.52Z" style="fill:#fbd5a6;"/><path d="M1363.18,1745.46c0,73.73-53.9,205.11-150.97,205.11s-150.86-131.38-150.86-205.11c0-78.12,67.58-141.52,150.86-141.52s150.97,63.41,150.97,141.52Z" style="fill:#fbd5a6;"/><path d="M1979.4,1745.46c0,73.73-53.86,205.11-150.92,205.11s-150.86-131.38-150.86-205.11c0-78.12,67.58-141.52,150.86-141.52s150.92,63.41,150.92,141.52Z" style="fill:#fbd5a6;"/><path d="M1421.92,332.22c0,114.02-83.32,317.25-233.41,317.25s-233.43-203.23-233.43-317.25c0-120.87,104.57-218.86,233.43-218.86s233.41,97.99,233.41,218.86Z" style="fill:#fbd5a6;"/><rect x="1141.45" y="974.23" width="85.52" height="90.33"/><path d="M2070.43,1488.75H298.97c-12.92,0-23.41-10.48-23.41-23.41v-293.79c0-12.92,10.49-23.41,23.41-23.41h414.37c12.92,0,23.41,10.49,23.41,23.41s-10.48,23.41-23.41,23.41H322.38v246.97H2047.02v-246.97h-391.78c-12.92,0-23.41-10.48-23.41-23.41s10.49-23.41,23.41-23.41h415.19c12.92,0,23.41,10.49,23.41,23.41v293.79c0,12.92-10.48,23.41-23.41,23.41Z"/><path d="M1655.24,1194.96H713.34c-12.9,0-23.38-10.46-23.41-23.35-.06-32.89-.48-61.68-.83-87.11-2.79-196.97,1.97-205.06,169.68-288.91,33.12-16.56,74.34-37.16,123.55-63.54,7.7-4.12,17.04-3.61,24.26,1.27l177.72,121.19,177.67-121.16c7.19-4.94,16.56-5.41,24.26-1.3,47.96,25.72,88.43,46.05,120.95,62.37,170.03,85.38,174.86,93.56,172.2,292.41-.32,24.79-.69,52.9-.74,84.78-.02,12.9-10.51,23.35-23.41,23.35Zm-918.6-46.82h895.27c.16-22.67,.42-43.23,.69-61.92,1.19-90.51,1.8-135.92-14.81-164.18-16.41-27.92-54.91-47.28-131.6-85.78-29.91-15-66.51-33.37-109.56-56.25l-179.13,122.17c-7.96,5.44-18.42,5.44-26.38,0l-179.21-122.17c-44.27,23.52-81.64,42.2-112.19,57.46-75.46,37.72-113.34,56.64-129.42,84.11-16.29,27.82-15.65,72.75-14.4,162.25,.29,19.38,.58,40.69,.74,64.31Z"/><path d="M1188.51,672.88c-168.62,0-256.85-221.78-256.85-340.66,0-133.58,115.22-242.27,256.85-242.27s256.82,108.69,256.82,242.27c0,118.88-88.2,340.66-256.82,340.66Zm0-536.11c-115.8,0-210.02,87.69-210.02,195.45,0,99.74,74.13,293.84,210.02,293.84s210-194.1,210-293.84c0-107.76-94.2-195.45-210-195.45Z"/><path d="M908.84,2339.93H299.87c-12.9,0-23.36-10.45-23.38-23.38-.05-21.18-.32-39.76-.53-56.16-1.83-129.79,3.51-138.87,114.28-194.26,21.37-10.69,47.96-23.99,79.68-41.01,7.7-4.12,17.07-3.64,24.26,1.3l110.15,75.19,110.22-75.19c7.22-4.94,16.56-5.44,24.26-1.3,30.95,16.61,57.12,29.75,78.11,40.29,90.75,45.55,115.12,57.78,116.15,149.59,.05,6,.05,12.42,0,19.24v1.19c-.05,8.34-.19,17.33-.32,27.1-.21,15.85-.48,33.74-.51,54.01-.02,12.92-10.48,23.38-23.4,23.38Zm-585.69-46.82H885.56c.11-11.2,.24-21.58,.38-31.22,.13-9.66,.26-18.55,.32-26.78,0-.13,0-.29,.03-.45-.03-.27-.03-.53-.03-.8,.05-6.56,.05-12.69,0-18.39-.69-63.22-2.39-64.07-90.32-108.24-18.39-9.21-40.63-20.39-66.7-34.19l-111.74,76.23c-7.96,5.42-18.42,5.42-26.38,0l-111.63-76.23c-26.78,14.18-49.53,25.56-68.29,34.93-47.32,23.67-71.08,35.57-80.24,51.2-9.37,15.98-8.97,46.03-8.2,100.57,.16,10.21,.29,21.31,.4,33.36Z"/><path d="M607.06,1973.98c-116.01,0-174.24-146.51-174.24-228.52,0-90.94,78.16-164.93,174.24-164.93s174.33,73.99,174.33,164.93c0,82.01-58.26,228.52-174.33,228.52Zm0-346.63c-70.25,0-127.45,52.97-127.45,118.11s48.41,181.7,127.45,181.7,127.53-117.63,127.53-181.7-57.22-118.11-127.53-118.11Z"/><path d="M1519.46,2339.93H910.48c-12.92,0-23.38-10.45-23.4-23.38-.03-20.28-.3-38.16-.51-54.01-.13-9.77-.27-18.76-.32-27.1v-1.38c-.05-6.66-.05-13.06,0-19,1.03-91.86,25.4-104.1,116.15-149.64,21-10.54,47.16-23.68,78.11-40.29,7.72-4.12,17.07-3.64,24.26,1.3l110.2,75.19,110.18-75.19c7.22-4.94,16.56-5.42,24.26-1.3,31.77,17.04,58.39,30.33,79.76,41.04,96.45,48.22,114.61,60.35,114.61,156.75,0,10.88-.19,23.04-.37,36.76-.24,16.59-.53,35.38-.56,56.88,0,12.92-10.48,23.38-23.38,23.38Zm-585.69-46.82h562.39c.11-12.34,.29-23.67,.42-34.13,.21-13.43,.37-25.38,.37-36.07q0-70.52-88.7-114.87c-18.79-9.39-41.57-20.78-68.43-34.99l-111.66,76.23c-7.96,5.44-18.42,5.44-26.39,0l-111.68-76.23c-26.06,13.8-48.31,24.98-66.69,34.19-87.93,44.16-89.63,45.01-90.33,108.26-.05,5.65-.05,11.81,0,18.39v1.38c.05,8.07,.19,16.96,.32,26.62,.14,9.64,.26,20.01,.38,31.22Z"/><path d="M1212.21,1973.98c-116.04,0-174.28-146.51-174.28-228.52,0-90.94,78.17-164.93,174.28-164.93s174.38,73.99,174.38,164.93c0,82.01-58.29,228.52-174.38,228.52Zm0-346.63c-70.28,0-127.45,52.97-127.45,118.11s48.38,181.7,127.45,181.7,127.56-117.63,127.56-181.7-57.23-118.11-127.56-118.11Z"/><path d="M2130.21,2339.93h-608.92c-12.92,0-23.38-10.45-23.41-23.38-.02-21.5-.29-40.29-.56-56.88-.19-13.72-.37-25.88-.37-36.76,0-96.4,18.15-108.53,114.58-156.75,21.37-10.67,47.99-23.99,79.73-41.04,7.7-4.12,17.04-3.64,24.26,1.3l110.25,75.19,110.18-75.19c7.22-4.94,16.56-5.42,24.26-1.3,30.95,16.59,57.07,29.73,78.04,40.26,112.19,56.32,117.6,65.51,115.85,196.49-.21,16.01-.45,34.11-.48,54.68-.03,12.92-10.51,23.38-23.41,23.38Zm-585.64-46.82h562.36c.08-11.46,.24-22.06,.38-31.85,.72-55.16,1.14-85.55-8.41-101.82-9.37-15.95-33.52-28.08-81.64-52.24-18.37-9.21-40.59-20.38-66.59-34.16l-111.69,76.23c-7.96,5.44-18.42,5.42-26.38,0l-111.74-76.23c-26.83,14.2-49.6,25.59-68.39,34.99q-88.68,44.35-88.68,114.87c0,10.69,.18,22.61,.37,36.07,.16,10.46,.32,21.79,.42,34.13Z"/><path d="M1828.48,1973.98c-116.04,0-174.27-146.51-174.27-228.52,0-90.94,78.16-164.93,174.27-164.93s174.32,73.99,174.32,164.93c0,82.01-58.25,228.52-174.32,228.52Zm0-346.63c-70.28,0-127.45,52.97-127.45,118.11s48.38,181.7,127.45,181.7,127.5-117.63,127.5-181.7-57.19-118.11-127.5-118.11Z"/></g></g><g id="b"/></svg>